%TF.GenerationSoftware,KiCad,Pcbnew,9.0.6*%
%TF.CreationDate,2025-12-23T12:32:36-05:00*%
%TF.ProjectId,astrapad,61737472-6170-4616-942e-6b696361645f,rev?*%
%TF.SameCoordinates,Original*%
%TF.FileFunction,Soldermask,Bot*%
%TF.FilePolarity,Negative*%
%FSLAX46Y46*%
G04 Gerber Fmt 4.6, Leading zero omitted, Abs format (unit mm)*
G04 Created by KiCad (PCBNEW 9.0.6) date 2025-12-23 12:32:36*
%MOMM*%
%LPD*%
G01*
G04 APERTURE LIST*
G04 Aperture macros list*
%AMRoundRect*
0 Rectangle with rounded corners*
0 $1 Rounding radius*
0 $2 $3 $4 $5 $6 $7 $8 $9 X,Y pos of 4 corners*
0 Add a 4 corners polygon primitive as box body*
4,1,4,$2,$3,$4,$5,$6,$7,$8,$9,$2,$3,0*
0 Add four circle primitives for the rounded corners*
1,1,$1+$1,$2,$3*
1,1,$1+$1,$4,$5*
1,1,$1+$1,$6,$7*
1,1,$1+$1,$8,$9*
0 Add four rect primitives between the rounded corners*
20,1,$1+$1,$2,$3,$4,$5,0*
20,1,$1+$1,$4,$5,$6,$7,0*
20,1,$1+$1,$6,$7,$8,$9,0*
20,1,$1+$1,$8,$9,$2,$3,0*%
G04 Aperture macros list end*
%ADD10C,1.700000*%
%ADD11C,4.000000*%
%ADD12C,2.200000*%
%ADD13RoundRect,0.082000X0.718000X-0.328000X0.718000X0.328000X-0.718000X0.328000X-0.718000X-0.328000X0*%
%ADD14R,2.000000X2.000000*%
%ADD15C,2.000000*%
%ADD16R,3.200000X2.000000*%
%ADD17C,1.524000*%
%ADD18R,1.700000X1.700000*%
G04 APERTURE END LIST*
D10*
%TO.C,SW5*%
X37280000Y-40040000D03*
D11*
X32200000Y-40040000D03*
D10*
X27120000Y-40040000D03*
D12*
X29660000Y-45120000D03*
X36010000Y-42580000D03*
%TD*%
D10*
%TO.C,SW1*%
X37280000Y-20840000D03*
D11*
X32200000Y-20840000D03*
D10*
X27120000Y-20840000D03*
D12*
X29660000Y-25920000D03*
X36010000Y-23380000D03*
%TD*%
D10*
%TO.C,SW8*%
X94380000Y-40040000D03*
D11*
X89300000Y-40040000D03*
D10*
X84220000Y-40040000D03*
D12*
X86760000Y-45120000D03*
X93110000Y-42580000D03*
%TD*%
D13*
%TO.C,D14*%
X73462500Y-36556733D03*
X73462500Y-35056733D03*
X67182500Y-35066733D03*
X67182500Y-36566733D03*
%TD*%
D10*
%TO.C,SW7*%
X75290000Y-40040000D03*
D11*
X70210000Y-40040000D03*
D10*
X65130000Y-40040000D03*
D12*
X67670000Y-45120000D03*
X74020000Y-42580000D03*
%TD*%
D10*
%TO.C,SW2*%
X56290000Y-20840000D03*
D11*
X51210000Y-20840000D03*
D10*
X46130000Y-20840000D03*
D12*
X48670000Y-25920000D03*
X55020000Y-23380000D03*
%TD*%
D10*
%TO.C,SW3*%
X75290000Y-20840000D03*
D11*
X70210000Y-20840000D03*
D10*
X65130000Y-20840000D03*
D12*
X67670000Y-25920000D03*
X74020000Y-23380000D03*
%TD*%
D13*
%TO.C,D10*%
X35552500Y-17476733D03*
X35552500Y-15976733D03*
X29272500Y-15986733D03*
X29272500Y-17486733D03*
%TD*%
D10*
%TO.C,SW6*%
X56290000Y-40040000D03*
D11*
X51210000Y-40040000D03*
D10*
X46130000Y-40040000D03*
D12*
X48670000Y-45120000D03*
X55020000Y-42580000D03*
%TD*%
D14*
%TO.C,SW13*%
X82050000Y-18340000D03*
D15*
X82050000Y-23340000D03*
X82050000Y-20840000D03*
D16*
X89550000Y-15240000D03*
X89550000Y-26440000D03*
D15*
X96550000Y-23340000D03*
X96550000Y-18340000D03*
%TD*%
D13*
%TO.C,D11*%
X54462500Y-17476733D03*
X54462500Y-15976733D03*
X48182500Y-15986733D03*
X48182500Y-17486733D03*
%TD*%
D17*
%TO.C,U1*%
X2551810Y-2843267D03*
X2551810Y-5383267D03*
X2551810Y-7923267D03*
X2551810Y-10463267D03*
X2551810Y-13003267D03*
X2551810Y-15543267D03*
X2551810Y-18083267D03*
X17791810Y-18083267D03*
X17791810Y-15543267D03*
X17791810Y-13003267D03*
X17791810Y-10463267D03*
X17791810Y-7923267D03*
X17791810Y-5383267D03*
X17791810Y-2843267D03*
%TD*%
D13*
%TO.C,D12*%
X73462500Y-17476733D03*
X73462500Y-15976733D03*
X67182500Y-15986733D03*
X67182500Y-17486733D03*
%TD*%
%TO.C,D13*%
X92552500Y-36556733D03*
X92552500Y-35056733D03*
X86272500Y-35066733D03*
X86272500Y-36566733D03*
%TD*%
%TO.C,D15*%
X54462500Y-36556733D03*
X54462500Y-35056733D03*
X48182500Y-35066733D03*
X48182500Y-36566733D03*
%TD*%
%TO.C,D16*%
X35452500Y-36556733D03*
X35452500Y-35056733D03*
X29172500Y-35066733D03*
X29172500Y-36566733D03*
%TD*%
D18*
%TO.C,J1*%
X60476750Y-3128250D03*
D10*
X60476750Y-5668250D03*
X60476750Y-8208250D03*
X60476750Y-10748250D03*
%TD*%
M02*
