%TF.GenerationSoftware,KiCad,Pcbnew,9.0.6*%
%TF.CreationDate,2025-12-23T12:33:08-05:00*%
%TF.ProjectId,astrapad,61737472-6170-4616-942e-6b696361645f,rev?*%
%TF.SameCoordinates,Original*%
%TF.FileFunction,Plated,1,2,PTH,Mixed*%
%TF.FilePolarity,Positive*%
%FSLAX46Y46*%
G04 Gerber Fmt 4.6, Leading zero omitted, Abs format (unit mm)*
G04 Created by KiCad (PCBNEW 9.0.6) date 2025-12-23 12:33:08*
%MOMM*%
%LPD*%
G01*
G04 APERTURE LIST*
%TA.AperFunction,ViaDrill*%
%ADD10C,0.300000*%
%TD*%
%TA.AperFunction,ComponentDrill*%
%ADD11C,0.889000*%
%TD*%
%TA.AperFunction,ComponentDrill*%
%ADD12C,1.000000*%
%TD*%
%TA.AperFunction,ComponentDrill*%
%ADD13C,1.500000*%
%TD*%
G04 aperture for slot hole*
%TA.AperFunction,ComponentDrill*%
%ADD14C,1.500000*%
%TD*%
G04 APERTURE END LIST*
D10*
X800000Y-49558193D03*
X2071810Y-30980000D03*
X2360000Y-20063267D03*
X3800000Y-18850000D03*
X5000000Y-20160000D03*
X6970000Y-20160000D03*
X8275000Y-8205000D03*
X9270000Y-7240000D03*
X9371810Y-18263267D03*
X9990000Y-47771003D03*
X10650000Y-5780000D03*
X11090000Y-47771003D03*
X11830000Y-53980000D03*
X13180000Y-28380000D03*
X14271810Y-13263267D03*
X15170000Y-19780000D03*
X21210000Y-27110000D03*
X22170000Y-9220000D03*
X22671810Y-27120000D03*
X22671810Y-28360000D03*
X22671810Y-30995510D03*
X23104265Y-8285735D03*
X23271810Y-31763267D03*
X23310000Y-23420000D03*
X23380000Y-22170000D03*
X23980000Y-10230000D03*
X24023521Y-8821580D03*
X24510000Y-32010000D03*
X24871810Y-38463267D03*
X25870000Y-4880000D03*
X26460000Y-17610000D03*
X26800000Y-5830000D03*
X28690000Y-11360000D03*
X29610000Y-29300000D03*
X30260000Y-46970000D03*
X30260000Y-47770003D03*
X30260000Y-48570006D03*
X30330000Y-49560000D03*
X30380000Y-14200000D03*
X30620000Y-10240000D03*
X32860000Y-25400000D03*
X33350000Y-43270000D03*
X33820000Y-28420000D03*
X35060000Y-11360000D03*
X35410000Y-27770000D03*
X36070000Y-6060000D03*
X37890000Y-18460000D03*
X39540000Y-11670000D03*
X40430000Y-16190000D03*
X40430000Y-35050000D03*
X40690000Y-9560000D03*
X43230000Y-16250000D03*
X43248477Y-10350000D03*
X46030000Y-11670000D03*
X48060000Y-11670000D03*
X48600000Y-47700000D03*
X48650000Y-13040000D03*
X48660000Y-43070000D03*
X48880000Y-10370000D03*
X49522727Y-800000D03*
X49730000Y-10330000D03*
X55010000Y-27880000D03*
X55610000Y-37490000D03*
X56930000Y-18240000D03*
X57120000Y-35980000D03*
X58933235Y-8903235D03*
X59220000Y-48140000D03*
X59230000Y-46930000D03*
X59510000Y-29230000D03*
X59540000Y-31180000D03*
X59540000Y-36010000D03*
X60760000Y-50780000D03*
X62790000Y-11590000D03*
X63410000Y-13070000D03*
X65340000Y-18610000D03*
X67630000Y-13110000D03*
X71950000Y-43280000D03*
X73010000Y-38390000D03*
X73020000Y-32770000D03*
X73640000Y-50370000D03*
X76690000Y-800000D03*
X77020000Y-29300000D03*
X77810000Y-21280000D03*
X78010000Y-18520000D03*
X78620000Y-1430000D03*
X83670000Y-36630000D03*
X86680000Y-32680000D03*
X86690000Y-34040000D03*
X90670000Y-50320000D03*
D11*
%TO.C,U1*%
X2551810Y-2843267D03*
X2551810Y-5383267D03*
X2551810Y-7923267D03*
X2551810Y-10463267D03*
X2551810Y-13003267D03*
X2551810Y-15543267D03*
X2551810Y-18083267D03*
X17791810Y-2843267D03*
X17791810Y-5383267D03*
X17791810Y-7923267D03*
X17791810Y-10463267D03*
X17791810Y-13003267D03*
X17791810Y-15543267D03*
X17791810Y-18083267D03*
D12*
%TO.C,J1*%
X60476750Y-3128250D03*
X60476750Y-5668250D03*
X60476750Y-8208250D03*
X60476750Y-10748250D03*
%TO.C,SW13*%
X82050000Y-18340000D03*
X82050000Y-20840000D03*
X82050000Y-23340000D03*
X96550000Y-18340000D03*
X96550000Y-23340000D03*
D13*
%TO.C,SW1*%
X29660000Y-25920000D03*
%TO.C,SW5*%
X29660000Y-45120000D03*
%TO.C,SW1*%
X36010000Y-23380000D03*
%TO.C,SW5*%
X36010000Y-42580000D03*
%TO.C,SW2*%
X48670000Y-25920000D03*
%TO.C,SW6*%
X48670000Y-45120000D03*
%TO.C,SW2*%
X55020000Y-23380000D03*
%TO.C,SW6*%
X55020000Y-42580000D03*
%TO.C,SW3*%
X67670000Y-25920000D03*
%TO.C,SW7*%
X67670000Y-45120000D03*
%TO.C,SW3*%
X74020000Y-23380000D03*
%TO.C,SW7*%
X74020000Y-42580000D03*
%TO.C,SW8*%
X86760000Y-45120000D03*
D14*
%TO.C,SW13*%
X90200000Y-15240000D02*
X88900000Y-15240000D01*
X90200000Y-26440000D02*
X88900000Y-26440000D01*
D13*
%TO.C,SW8*%
X93110000Y-42580000D03*
M02*
