%TF.GenerationSoftware,KiCad,Pcbnew,9.0.6*%
%TF.CreationDate,2025-12-23T12:32:36-05:00*%
%TF.ProjectId,astrapad,61737472-6170-4616-942e-6b696361645f,rev?*%
%TF.SameCoordinates,Original*%
%TF.FileFunction,Profile,NP*%
%FSLAX46Y46*%
G04 Gerber Fmt 4.6, Leading zero omitted, Abs format (unit mm)*
G04 Created by KiCad (PCBNEW 9.0.6) date 2025-12-23 12:32:36*
%MOMM*%
%LPD*%
G01*
G04 APERTURE LIST*
%TA.AperFunction,Profile*%
%ADD10C,0.050000*%
%TD*%
%TA.AperFunction,Profile*%
%ADD11C,0.100000*%
%TD*%
G04 APERTURE END LIST*
D10*
X0Y0D02*
X99890000Y0D01*
X99890000Y-54780000D01*
X0Y-54780000D01*
X0Y0D01*
D11*
%TO.C,D14*%
X68622501Y-36519575D02*
X68622501Y-35113891D01*
X69528048Y-34316733D02*
X71116952Y-34316733D01*
X71116952Y-37316732D02*
X69528047Y-37316732D01*
X72022499Y-35113891D02*
X72022499Y-36519575D01*
X68573016Y-34897013D02*
G75*
G02*
X68622501Y-35113891I-450505J-216876D01*
G01*
X68573016Y-34897014D02*
G75*
G02*
X69275789Y-34248434I450514J216880D01*
G01*
X68622501Y-36519576D02*
G75*
G02*
X68573016Y-36736453I-499990J-1D01*
G01*
X69275789Y-37385031D02*
G75*
G02*
X68573016Y-36736453I-252258J431701D01*
G01*
X69275789Y-37385031D02*
G75*
G02*
X69528047Y-37316732I252261J-431710D01*
G01*
X69528048Y-34316733D02*
G75*
G02*
X69275789Y-34248434I2J500009D01*
G01*
X71116953Y-37316733D02*
G75*
G02*
X71369211Y-37385032I-3J-500010D01*
G01*
X71369210Y-34248434D02*
G75*
G02*
X71116952Y-34316732I-252260J431711D01*
G01*
X71369211Y-34248436D02*
G75*
G02*
X72071981Y-34897012I252259J-431697D01*
G01*
X72022499Y-35113890D02*
G75*
G02*
X72071982Y-34897012I500031J-3D01*
G01*
X72071984Y-36736453D02*
G75*
G02*
X71369210Y-37385033I-450514J-216880D01*
G01*
X72072500Y-36736733D02*
G75*
G02*
X72023004Y-36519856I450500J216900D01*
G01*
%TO.C,D10*%
X30712501Y-17439575D02*
X30712501Y-16033891D01*
X31618048Y-15236733D02*
X33206952Y-15236733D01*
X33206952Y-18236732D02*
X31618047Y-18236732D01*
X34112499Y-16033891D02*
X34112499Y-17439575D01*
X30663016Y-15817013D02*
G75*
G02*
X30712501Y-16033891I-450505J-216876D01*
G01*
X30663016Y-15817014D02*
G75*
G02*
X31365789Y-15168434I450514J216880D01*
G01*
X30712501Y-17439576D02*
G75*
G02*
X30663016Y-17656453I-499990J-1D01*
G01*
X31365789Y-18305031D02*
G75*
G02*
X30663016Y-17656453I-252258J431701D01*
G01*
X31365789Y-18305031D02*
G75*
G02*
X31618047Y-18236732I252261J-431710D01*
G01*
X31618048Y-15236733D02*
G75*
G02*
X31365789Y-15168434I2J500009D01*
G01*
X33206953Y-18236733D02*
G75*
G02*
X33459211Y-18305032I-3J-500010D01*
G01*
X33459210Y-15168434D02*
G75*
G02*
X33206952Y-15236732I-252260J431711D01*
G01*
X33459211Y-15168436D02*
G75*
G02*
X34161981Y-15817012I252259J-431697D01*
G01*
X34112499Y-16033890D02*
G75*
G02*
X34161982Y-15817012I500031J-3D01*
G01*
X34161984Y-17656453D02*
G75*
G02*
X33459210Y-18305033I-450514J-216880D01*
G01*
X34162500Y-17656733D02*
G75*
G02*
X34113004Y-17439856I450500J216900D01*
G01*
%TO.C,D11*%
X49622501Y-17439575D02*
X49622501Y-16033891D01*
X50528048Y-15236733D02*
X52116952Y-15236733D01*
X52116952Y-18236732D02*
X50528047Y-18236732D01*
X53022499Y-16033891D02*
X53022499Y-17439575D01*
X49573016Y-15817013D02*
G75*
G02*
X49622501Y-16033891I-450505J-216876D01*
G01*
X49573016Y-15817014D02*
G75*
G02*
X50275789Y-15168434I450514J216880D01*
G01*
X49622501Y-17439576D02*
G75*
G02*
X49573016Y-17656453I-499990J-1D01*
G01*
X50275789Y-18305031D02*
G75*
G02*
X49573016Y-17656453I-252258J431701D01*
G01*
X50275789Y-18305031D02*
G75*
G02*
X50528047Y-18236732I252261J-431710D01*
G01*
X50528048Y-15236733D02*
G75*
G02*
X50275789Y-15168434I2J500009D01*
G01*
X52116953Y-18236733D02*
G75*
G02*
X52369211Y-18305032I-3J-500010D01*
G01*
X52369210Y-15168434D02*
G75*
G02*
X52116952Y-15236732I-252260J431711D01*
G01*
X52369211Y-15168436D02*
G75*
G02*
X53071981Y-15817012I252259J-431697D01*
G01*
X53022499Y-16033890D02*
G75*
G02*
X53071982Y-15817012I500031J-3D01*
G01*
X53071984Y-17656453D02*
G75*
G02*
X52369210Y-18305033I-450514J-216880D01*
G01*
X53072500Y-17656733D02*
G75*
G02*
X53023004Y-17439856I450500J216900D01*
G01*
%TO.C,D12*%
X68622501Y-17439575D02*
X68622501Y-16033891D01*
X69528048Y-15236733D02*
X71116952Y-15236733D01*
X71116952Y-18236732D02*
X69528047Y-18236732D01*
X72022499Y-16033891D02*
X72022499Y-17439575D01*
X68573016Y-15817013D02*
G75*
G02*
X68622501Y-16033891I-450505J-216876D01*
G01*
X68573016Y-15817014D02*
G75*
G02*
X69275789Y-15168434I450514J216880D01*
G01*
X68622501Y-17439576D02*
G75*
G02*
X68573016Y-17656453I-499990J-1D01*
G01*
X69275789Y-18305031D02*
G75*
G02*
X68573016Y-17656453I-252258J431701D01*
G01*
X69275789Y-18305031D02*
G75*
G02*
X69528047Y-18236732I252261J-431710D01*
G01*
X69528048Y-15236733D02*
G75*
G02*
X69275789Y-15168434I2J500009D01*
G01*
X71116953Y-18236733D02*
G75*
G02*
X71369211Y-18305032I-3J-500010D01*
G01*
X71369210Y-15168434D02*
G75*
G02*
X71116952Y-15236732I-252260J431711D01*
G01*
X71369211Y-15168436D02*
G75*
G02*
X72071981Y-15817012I252259J-431697D01*
G01*
X72022499Y-16033890D02*
G75*
G02*
X72071982Y-15817012I500031J-3D01*
G01*
X72071984Y-17656453D02*
G75*
G02*
X71369210Y-18305033I-450514J-216880D01*
G01*
X72072500Y-17656733D02*
G75*
G02*
X72023004Y-17439856I450500J216900D01*
G01*
%TO.C,D13*%
X87712501Y-36519575D02*
X87712501Y-35113891D01*
X88618048Y-34316733D02*
X90206952Y-34316733D01*
X90206952Y-37316732D02*
X88618047Y-37316732D01*
X91112499Y-35113891D02*
X91112499Y-36519575D01*
X87663016Y-34897013D02*
G75*
G02*
X87712501Y-35113891I-450505J-216876D01*
G01*
X87663016Y-34897014D02*
G75*
G02*
X88365789Y-34248434I450514J216880D01*
G01*
X87712501Y-36519576D02*
G75*
G02*
X87663016Y-36736453I-499990J-1D01*
G01*
X88365789Y-37385031D02*
G75*
G02*
X87663016Y-36736453I-252258J431701D01*
G01*
X88365789Y-37385031D02*
G75*
G02*
X88618047Y-37316732I252261J-431710D01*
G01*
X88618048Y-34316733D02*
G75*
G02*
X88365789Y-34248434I2J500009D01*
G01*
X90206953Y-37316733D02*
G75*
G02*
X90459211Y-37385032I-3J-500010D01*
G01*
X90459210Y-34248434D02*
G75*
G02*
X90206952Y-34316732I-252260J431711D01*
G01*
X90459211Y-34248436D02*
G75*
G02*
X91161981Y-34897012I252259J-431697D01*
G01*
X91112499Y-35113890D02*
G75*
G02*
X91161982Y-34897012I500031J-3D01*
G01*
X91161984Y-36736453D02*
G75*
G02*
X90459210Y-37385033I-450514J-216880D01*
G01*
X91162500Y-36736733D02*
G75*
G02*
X91113004Y-36519856I450500J216900D01*
G01*
%TO.C,D15*%
X49622501Y-36519575D02*
X49622501Y-35113891D01*
X50528048Y-34316733D02*
X52116952Y-34316733D01*
X52116952Y-37316732D02*
X50528047Y-37316732D01*
X53022499Y-35113891D02*
X53022499Y-36519575D01*
X49573016Y-34897013D02*
G75*
G02*
X49622501Y-35113891I-450505J-216876D01*
G01*
X49573016Y-34897014D02*
G75*
G02*
X50275789Y-34248434I450514J216880D01*
G01*
X49622501Y-36519576D02*
G75*
G02*
X49573016Y-36736453I-499990J-1D01*
G01*
X50275789Y-37385031D02*
G75*
G02*
X49573016Y-36736453I-252258J431701D01*
G01*
X50275789Y-37385031D02*
G75*
G02*
X50528047Y-37316732I252261J-431710D01*
G01*
X50528048Y-34316733D02*
G75*
G02*
X50275789Y-34248434I2J500009D01*
G01*
X52116953Y-37316733D02*
G75*
G02*
X52369211Y-37385032I-3J-500010D01*
G01*
X52369210Y-34248434D02*
G75*
G02*
X52116952Y-34316732I-252260J431711D01*
G01*
X52369211Y-34248436D02*
G75*
G02*
X53071981Y-34897012I252259J-431697D01*
G01*
X53022499Y-35113890D02*
G75*
G02*
X53071982Y-34897012I500031J-3D01*
G01*
X53071984Y-36736453D02*
G75*
G02*
X52369210Y-37385033I-450514J-216880D01*
G01*
X53072500Y-36736733D02*
G75*
G02*
X53023004Y-36519856I450500J216900D01*
G01*
%TO.C,D16*%
X30612501Y-36519575D02*
X30612501Y-35113891D01*
X31518048Y-34316733D02*
X33106952Y-34316733D01*
X33106952Y-37316732D02*
X31518047Y-37316732D01*
X34012499Y-35113891D02*
X34012499Y-36519575D01*
X30563016Y-34897013D02*
G75*
G02*
X30612501Y-35113891I-450505J-216876D01*
G01*
X30563016Y-34897014D02*
G75*
G02*
X31265789Y-34248434I450514J216880D01*
G01*
X30612501Y-36519576D02*
G75*
G02*
X30563016Y-36736453I-499990J-1D01*
G01*
X31265789Y-37385031D02*
G75*
G02*
X30563016Y-36736453I-252258J431701D01*
G01*
X31265789Y-37385031D02*
G75*
G02*
X31518047Y-37316732I252261J-431710D01*
G01*
X31518048Y-34316733D02*
G75*
G02*
X31265789Y-34248434I2J500009D01*
G01*
X33106953Y-37316733D02*
G75*
G02*
X33359211Y-37385032I-3J-500010D01*
G01*
X33359210Y-34248434D02*
G75*
G02*
X33106952Y-34316732I-252260J431711D01*
G01*
X33359211Y-34248436D02*
G75*
G02*
X34061981Y-34897012I252259J-431697D01*
G01*
X34012499Y-35113890D02*
G75*
G02*
X34061982Y-34897012I500031J-3D01*
G01*
X34061984Y-36736453D02*
G75*
G02*
X33359210Y-37385033I-450514J-216880D01*
G01*
X34062500Y-36736733D02*
G75*
G02*
X34013004Y-36519856I450500J216900D01*
G01*
%TD*%
M02*
