%TF.GenerationSoftware,KiCad,Pcbnew,9.0.6*%
%TF.CreationDate,2025-12-23T12:32:35-05:00*%
%TF.ProjectId,astrapad,61737472-6170-4616-942e-6b696361645f,rev?*%
%TF.SameCoordinates,Original*%
%TF.FileFunction,Copper,L2,Bot*%
%TF.FilePolarity,Positive*%
%FSLAX46Y46*%
G04 Gerber Fmt 4.6, Leading zero omitted, Abs format (unit mm)*
G04 Created by KiCad (PCBNEW 9.0.6) date 2025-12-23 12:32:35*
%MOMM*%
%LPD*%
G01*
G04 APERTURE LIST*
G04 Aperture macros list*
%AMRoundRect*
0 Rectangle with rounded corners*
0 $1 Rounding radius*
0 $2 $3 $4 $5 $6 $7 $8 $9 X,Y pos of 4 corners*
0 Add a 4 corners polygon primitive as box body*
4,1,4,$2,$3,$4,$5,$6,$7,$8,$9,$2,$3,0*
0 Add four circle primitives for the rounded corners*
1,1,$1+$1,$2,$3*
1,1,$1+$1,$4,$5*
1,1,$1+$1,$6,$7*
1,1,$1+$1,$8,$9*
0 Add four rect primitives between the rounded corners*
20,1,$1+$1,$2,$3,$4,$5,0*
20,1,$1+$1,$4,$5,$6,$7,0*
20,1,$1+$1,$6,$7,$8,$9,0*
20,1,$1+$1,$8,$9,$2,$3,0*%
G04 Aperture macros list end*
%TA.AperFunction,ComponentPad*%
%ADD10C,2.200000*%
%TD*%
%TA.AperFunction,SMDPad,CuDef*%
%ADD11RoundRect,0.082000X0.718000X-0.328000X0.718000X0.328000X-0.718000X0.328000X-0.718000X-0.328000X0*%
%TD*%
%TA.AperFunction,ComponentPad*%
%ADD12R,2.000000X2.000000*%
%TD*%
%TA.AperFunction,ComponentPad*%
%ADD13C,2.000000*%
%TD*%
%TA.AperFunction,ComponentPad*%
%ADD14R,3.200000X2.000000*%
%TD*%
%TA.AperFunction,ComponentPad*%
%ADD15C,1.524000*%
%TD*%
%TA.AperFunction,ComponentPad*%
%ADD16R,1.700000X1.700000*%
%TD*%
%TA.AperFunction,ComponentPad*%
%ADD17C,1.700000*%
%TD*%
%TA.AperFunction,ViaPad*%
%ADD18C,0.600000*%
%TD*%
%TA.AperFunction,Conductor*%
%ADD19C,0.200000*%
%TD*%
G04 APERTURE END LIST*
D10*
%TO.P,SW5,1,1*%
%TO.N,Net-(D5-A)*%
X29660000Y-45120000D03*
%TO.P,SW5,2,2*%
%TO.N,Column 1*%
X36010000Y-42580000D03*
%TD*%
%TO.P,SW1,1,1*%
%TO.N,Net-(D1-A)*%
X29660000Y-25920000D03*
%TO.P,SW1,2,2*%
%TO.N,Column 1*%
X36010000Y-23380000D03*
%TD*%
%TO.P,SW8,1,1*%
%TO.N,Net-(D8-A)*%
X86760000Y-45120000D03*
%TO.P,SW8,2,2*%
%TO.N,Column 4*%
X93110000Y-42580000D03*
%TD*%
D11*
%TO.P,D14,1,VDD*%
%TO.N,+5V*%
X73462500Y-36556733D03*
%TO.P,D14,2,DOUT*%
%TO.N,Net-(D14-DOUT)*%
X73462500Y-35056733D03*
%TO.P,D14,3,VSS*%
%TO.N,GND*%
X67182500Y-35066733D03*
%TO.P,D14,4,DIN*%
%TO.N,Net-(D13-DOUT)*%
X67182500Y-36566733D03*
%TD*%
D10*
%TO.P,SW7,1,1*%
%TO.N,Net-(D7-A)*%
X67670000Y-45120000D03*
%TO.P,SW7,2,2*%
%TO.N,Column 3*%
X74020000Y-42580000D03*
%TD*%
%TO.P,SW2,1,1*%
%TO.N,Net-(D2-A)*%
X48670000Y-25920000D03*
%TO.P,SW2,2,2*%
%TO.N,Column 2*%
X55020000Y-23380000D03*
%TD*%
%TO.P,SW3,1,1*%
%TO.N,Net-(D3-A)*%
X67670000Y-25920000D03*
%TO.P,SW3,2,2*%
%TO.N,Column 3*%
X74020000Y-23380000D03*
%TD*%
D11*
%TO.P,D10,1,VDD*%
%TO.N,+5V*%
X35552500Y-17476733D03*
%TO.P,D10,2,DOUT*%
%TO.N,Net-(D10-DOUT)*%
X35552500Y-15976733D03*
%TO.P,D10,3,VSS*%
%TO.N,GND*%
X29272500Y-15986733D03*
%TO.P,D10,4,DIN*%
%TO.N,Net-(D10-DIN)*%
X29272500Y-17486733D03*
%TD*%
D10*
%TO.P,SW6,1,1*%
%TO.N,Net-(D6-A)*%
X48670000Y-45120000D03*
%TO.P,SW6,2,2*%
%TO.N,Column 2*%
X55020000Y-42580000D03*
%TD*%
D12*
%TO.P,SW13,A,A*%
%TO.N,Rotary A*%
X82050000Y-18340000D03*
D13*
%TO.P,SW13,B,B*%
%TO.N,Rotary B*%
X82050000Y-23340000D03*
%TO.P,SW13,C,C*%
%TO.N,GND*%
X82050000Y-20840000D03*
D14*
%TO.P,SW13,MP*%
%TO.N,N/C*%
X89550000Y-15240000D03*
X89550000Y-26440000D03*
D13*
%TO.P,SW13,S1,S1*%
%TO.N,Column 4*%
X96550000Y-23340000D03*
%TO.P,SW13,S2,S2*%
%TO.N,Net-(D4-A)*%
X96550000Y-18340000D03*
%TD*%
D11*
%TO.P,D11,1,VDD*%
%TO.N,+5V*%
X54462500Y-17476733D03*
%TO.P,D11,2,DOUT*%
%TO.N,Net-(D11-DOUT)*%
X54462500Y-15976733D03*
%TO.P,D11,3,VSS*%
%TO.N,GND*%
X48182500Y-15986733D03*
%TO.P,D11,4,DIN*%
%TO.N,Net-(D10-DOUT)*%
X48182500Y-17486733D03*
%TD*%
D15*
%TO.P,U1,1,GPIO26/ADC0/A0*%
%TO.N,Column 1*%
X2551810Y-2843267D03*
%TO.P,U1,2,GPIO27/ADC1/A1*%
%TO.N,Column 2*%
X2551810Y-5383267D03*
%TO.P,U1,3,GPIO28/ADC2/A2*%
%TO.N,Column 3*%
X2551810Y-7923267D03*
%TO.P,U1,4,GPIO29/ADC3/A3*%
%TO.N,Column 4*%
X2551810Y-10463267D03*
%TO.P,U1,5,GPIO6/SDA*%
%TO.N,SDA*%
X2551810Y-13003267D03*
%TO.P,U1,6,GPIO7/SCL*%
%TO.N,SCL*%
X2551810Y-15543267D03*
%TO.P,U1,7,GPIO0/TX*%
%TO.N,Row 1*%
X2551810Y-18083267D03*
%TO.P,U1,8,GPIO1/RX*%
%TO.N,Net-(D10-DIN)*%
X17791810Y-18083267D03*
%TO.P,U1,9,GPIO2/SCK*%
%TO.N,Row 2*%
X17791810Y-15543267D03*
%TO.P,U1,10,GPIO4/MISO*%
%TO.N,Rotary A*%
X17791810Y-13003267D03*
%TO.P,U1,11,GPIO3/MOSI*%
%TO.N,Rotary B*%
X17791810Y-10463267D03*
%TO.P,U1,12,3V3*%
%TO.N,unconnected-(U1-3V3-Pad12)*%
X17791810Y-7923267D03*
%TO.P,U1,13,GND*%
%TO.N,GND*%
X17791810Y-5383267D03*
%TO.P,U1,14,VBUS*%
%TO.N,+5V*%
X17791810Y-2843267D03*
%TD*%
D11*
%TO.P,D12,1,VDD*%
%TO.N,+5V*%
X73462500Y-17476733D03*
%TO.P,D12,2,DOUT*%
%TO.N,Net-(D12-DOUT)*%
X73462500Y-15976733D03*
%TO.P,D12,3,VSS*%
%TO.N,GND*%
X67182500Y-15986733D03*
%TO.P,D12,4,DIN*%
%TO.N,Net-(D11-DOUT)*%
X67182500Y-17486733D03*
%TD*%
%TO.P,D13,1,VDD*%
%TO.N,+5V*%
X92552500Y-36556733D03*
%TO.P,D13,2,DOUT*%
%TO.N,Net-(D13-DOUT)*%
X92552500Y-35056733D03*
%TO.P,D13,3,VSS*%
%TO.N,GND*%
X86272500Y-35066733D03*
%TO.P,D13,4,DIN*%
%TO.N,Net-(D12-DOUT)*%
X86272500Y-36566733D03*
%TD*%
%TO.P,D15,1,VDD*%
%TO.N,+5V*%
X54462500Y-36556733D03*
%TO.P,D15,2,DOUT*%
%TO.N,Net-(D15-DOUT)*%
X54462500Y-35056733D03*
%TO.P,D15,3,VSS*%
%TO.N,GND*%
X48182500Y-35066733D03*
%TO.P,D15,4,DIN*%
%TO.N,Net-(D14-DOUT)*%
X48182500Y-36566733D03*
%TD*%
%TO.P,D16,1,VDD*%
%TO.N,+5V*%
X35452500Y-36556733D03*
%TO.P,D16,2,DOUT*%
%TO.N,Net-(D16-DOUT)*%
X35452500Y-35056733D03*
%TO.P,D16,3,VSS*%
%TO.N,GND*%
X29172500Y-35066733D03*
%TO.P,D16,4,DIN*%
%TO.N,Net-(D15-DOUT)*%
X29172500Y-36566733D03*
%TD*%
D16*
%TO.P,J1,1,Pin_1*%
%TO.N,SDA*%
X60476750Y-3128250D03*
D17*
%TO.P,J1,2,Pin_2*%
%TO.N,SCL*%
X60476750Y-5668250D03*
%TO.P,J1,3,Pin_3*%
%TO.N,+5V*%
X60476750Y-8208250D03*
%TO.P,J1,4,Pin_4*%
%TO.N,GND*%
X60476750Y-10748250D03*
%TD*%
D18*
%TO.N,Row 1*%
X23271810Y-31763267D03*
X2360000Y-20063267D03*
%TO.N,+5V*%
X73640000Y-50370000D03*
X55610000Y-37490000D03*
X800000Y-49558193D03*
X33350000Y-43270000D03*
X26800000Y-5830000D03*
X30380000Y-14200000D03*
X49730000Y-10330000D03*
X57120000Y-35980000D03*
X90670000Y-50320000D03*
X65340000Y-18610000D03*
X37890000Y-18460000D03*
X56930000Y-18240000D03*
X71950000Y-43280000D03*
X73010000Y-38390000D03*
X60760000Y-50780000D03*
%TO.N,Net-(D1-A)*%
X22671810Y-30995510D03*
X29610000Y-29300000D03*
X24510000Y-32010000D03*
%TO.N,GND*%
X23980000Y-10230000D03*
X67630000Y-13110000D03*
X86690000Y-34040000D03*
X63410000Y-13070000D03*
X48650000Y-13040000D03*
X6970000Y-20160000D03*
X5000000Y-20160000D03*
X86680000Y-32680000D03*
X11830000Y-53980000D03*
%TO.N,Net-(D2-A)*%
X3800000Y-18850000D03*
X2071810Y-30980000D03*
X32860000Y-25400000D03*
X23380000Y-22170000D03*
X21210000Y-27110000D03*
X22671810Y-27120000D03*
X15170000Y-19780000D03*
%TO.N,Net-(D3-A)*%
X23310000Y-23420000D03*
X35410000Y-27770000D03*
X13180000Y-28380000D03*
X22671810Y-28360000D03*
X9990000Y-47771003D03*
%TO.N,Net-(D4-A)*%
X28690000Y-11360000D03*
X35060000Y-11360000D03*
X40690000Y-9560000D03*
X24023521Y-8821580D03*
X58933235Y-8903235D03*
X11090000Y-47771003D03*
%TO.N,Row 2*%
X9371810Y-18263267D03*
X24871810Y-38463267D03*
X14271810Y-13263267D03*
%TO.N,Net-(D5-A)*%
X30260000Y-48570006D03*
%TO.N,Net-(D6-A)*%
X30260000Y-47770003D03*
X48600000Y-47700000D03*
%TO.N,Net-(D7-A)*%
X59230000Y-46930000D03*
X30260000Y-46970000D03*
%TO.N,Net-(D8-A)*%
X59220000Y-48140000D03*
X30330000Y-49560000D03*
%TO.N,Net-(D10-DIN)*%
X26460000Y-17610000D03*
%TO.N,Net-(D12-DOUT)*%
X83670000Y-36630000D03*
X77810000Y-21280000D03*
%TO.N,Net-(D14-DOUT)*%
X73020000Y-32770000D03*
X48660000Y-43070000D03*
%TO.N,Net-(D16-DOUT)*%
X40430000Y-35050000D03*
X36070000Y-6060000D03*
X40430000Y-16190000D03*
%TO.N,Column 1*%
X9270000Y-7240000D03*
%TO.N,Column 2*%
X59540000Y-31180000D03*
X59540000Y-36010000D03*
X33820000Y-28420000D03*
X59510000Y-29230000D03*
X8275000Y-8205000D03*
X55010000Y-27880000D03*
%TO.N,Column 3*%
X78620000Y-1430000D03*
X76690000Y-800000D03*
X77020000Y-29300000D03*
X49522727Y-800000D03*
%TO.N,Column 4*%
X48880000Y-10370000D03*
X62790000Y-11590000D03*
%TO.N,Rotary B*%
X23104265Y-8285735D03*
X25870000Y-4880000D03*
X22170000Y-9220000D03*
X78010000Y-18520000D03*
%TO.N,Rotary A*%
X10650000Y-5780000D03*
%TO.N,Net-(D17-DOUT)*%
X39540000Y-11670000D03*
X30620000Y-10240000D03*
X46030000Y-11670000D03*
X48060000Y-11670000D03*
%TO.N,Net-(D20-DIN)*%
X43230000Y-16250000D03*
X43248477Y-10350000D03*
%TD*%
D19*
%TO.N,Row 1*%
X2360000Y-19773620D02*
X2551810Y-19581810D01*
X10370810Y-24510810D02*
X3943267Y-18083267D01*
X2360000Y-20063267D02*
X2360000Y-19773620D01*
X2551810Y-19581810D02*
X2551810Y-18083267D01*
X24622867Y-39064267D02*
X24270810Y-38712210D01*
X25472810Y-33964267D02*
X25472810Y-38712210D01*
X25472810Y-38712210D02*
X25120753Y-39064267D01*
X10370810Y-24529367D02*
X10370810Y-24510810D01*
X23271810Y-31763267D02*
X25472810Y-33964267D01*
X3943267Y-18083267D02*
X2551810Y-18083267D01*
X24270810Y-38429367D02*
X10370810Y-24529367D01*
X24270810Y-38712210D02*
X24270810Y-38429367D01*
X25120753Y-39064267D02*
X24622867Y-39064267D01*
%TO.N,+5V*%
X71530000Y-23530000D02*
X69030000Y-23530000D01*
X54925767Y-37490000D02*
X54002500Y-36566733D01*
X55610000Y-37490000D02*
X54925767Y-37490000D01*
X73640000Y-44970000D02*
X73640000Y-50370000D01*
X17791810Y-2843267D02*
X19023267Y-2843267D01*
X49730000Y-10330000D02*
X52305000Y-12905000D01*
X73002500Y-17486733D02*
X73002500Y-22057500D01*
X67310000Y-20840000D02*
X65340000Y-18870000D01*
X34992500Y-41287500D02*
X33350000Y-42930000D01*
X92092500Y-41427500D02*
X90670000Y-42850000D01*
X71950000Y-43280000D02*
X73640000Y-44970000D01*
X73010000Y-36574233D02*
X73002500Y-36566733D01*
X34992500Y-36566733D02*
X34992500Y-41287500D01*
X60430000Y-39290000D02*
X57120000Y-35980000D01*
X69030000Y-23530000D02*
X67310000Y-21810000D01*
X65340000Y-18870000D02*
X65340000Y-18610000D01*
X90670000Y-42850000D02*
X90670000Y-50320000D01*
X26800000Y-5830000D02*
X25580000Y-5830000D01*
X25570000Y-5840000D02*
X22020000Y-5840000D01*
X54755767Y-18240000D02*
X56930000Y-18240000D01*
X92092500Y-36566733D02*
X92092500Y-41427500D01*
X19023267Y-2843267D02*
X20945000Y-4765000D01*
X52305000Y-12905000D02*
X55780000Y-12905000D01*
X60760000Y-50780000D02*
X60430000Y-50450000D01*
X3614810Y-17020267D02*
X2111500Y-17020267D01*
X36065767Y-18460000D02*
X37890000Y-18460000D01*
X22020000Y-5840000D02*
X20945000Y-4765000D01*
X2111500Y-17020267D02*
X800000Y-18331767D01*
X33350000Y-42930000D02*
X33350000Y-43270000D01*
X17791810Y-2843267D02*
X3614810Y-17020267D01*
X25580000Y-5830000D02*
X25570000Y-5840000D01*
X60430000Y-39970000D02*
X60430000Y-39290000D01*
X54002500Y-17486733D02*
X54755767Y-18240000D01*
X20945000Y-4765000D02*
X30380000Y-14200000D01*
X73002500Y-22057500D02*
X71530000Y-23530000D01*
X67310000Y-21810000D02*
X67310000Y-20840000D01*
X800000Y-18331767D02*
X800000Y-49558193D01*
X35092500Y-17486733D02*
X36065767Y-18460000D01*
X55780000Y-12905000D02*
X60476750Y-8208250D01*
X60430000Y-50450000D02*
X60430000Y-39970000D01*
X73010000Y-38390000D02*
X73010000Y-36574233D01*
%TO.N,Net-(D1-A)*%
X23470000Y-30970000D02*
X24510000Y-32010000D01*
X29610000Y-29300000D02*
X29610000Y-29210000D01*
X29610000Y-29210000D02*
X29660000Y-29160000D01*
X22671810Y-30995510D02*
X22697320Y-30970000D01*
X29660000Y-29160000D02*
X29660000Y-25920000D01*
X22697320Y-30970000D02*
X23470000Y-30970000D01*
%TO.N,GND*%
X29722500Y-15986733D02*
X23983267Y-15986733D01*
X84020000Y-30020000D02*
X86680000Y-32680000D01*
X48632500Y-30052500D02*
X48600000Y-30020000D01*
X48600000Y-30020000D02*
X67670000Y-30020000D01*
X23970000Y-30020000D02*
X29660000Y-30020000D01*
X67632500Y-15986733D02*
X67632500Y-13332500D01*
X86690000Y-34040000D02*
X86690000Y-35034233D01*
X81930000Y-30020000D02*
X84020000Y-30020000D01*
X67632500Y-13332500D02*
X67632500Y-13112500D01*
X86690000Y-35034233D02*
X86722500Y-35066733D01*
X48632500Y-35066733D02*
X48632500Y-30052500D01*
X67632500Y-30057500D02*
X67670000Y-30020000D01*
X48632500Y-13057500D02*
X48650000Y-13040000D01*
X11830000Y-53980000D02*
X11830000Y-54120000D01*
X6970000Y-16205077D02*
X6970000Y-20160000D01*
X23983267Y-15986733D02*
X23980000Y-15990000D01*
X48632500Y-15986733D02*
X48632500Y-14400000D01*
X17791810Y-5383267D02*
X6970000Y-16205077D01*
X5050000Y-20160000D02*
X8530000Y-23640000D01*
X5000000Y-20160000D02*
X5050000Y-20160000D01*
X29622500Y-30057500D02*
X29660000Y-30020000D01*
X23980000Y-13280000D02*
X23980000Y-15990000D01*
X8530000Y-23640000D02*
X8530000Y-50680000D01*
X23980000Y-15990000D02*
X23980000Y-30010000D01*
X23980000Y-10230000D02*
X23980000Y-13280000D01*
X67632500Y-35066733D02*
X67632500Y-30057500D01*
X8530000Y-50680000D02*
X11830000Y-53980000D01*
X67632500Y-13112500D02*
X67630000Y-13110000D01*
X67670000Y-30020000D02*
X81930000Y-30020000D01*
X23980000Y-30010000D02*
X23970000Y-30020000D01*
X48632500Y-14400000D02*
X48632500Y-13057500D01*
X62080000Y-14400000D02*
X63410000Y-13070000D01*
X80880000Y-20840000D02*
X82050000Y-20840000D01*
X29622500Y-35066733D02*
X29622500Y-30057500D01*
X29660000Y-30020000D02*
X48600000Y-30020000D01*
X48632500Y-14400000D02*
X62080000Y-14400000D01*
%TO.N,Net-(D2-A)*%
X22671810Y-22878190D02*
X23380000Y-22170000D01*
X22671810Y-27120000D02*
X22671810Y-22878190D01*
X32980000Y-25400000D02*
X33500000Y-25920000D01*
X2071810Y-30980000D02*
X3800000Y-29251810D01*
X32860000Y-25400000D02*
X32980000Y-25400000D01*
X15170000Y-21070000D02*
X21210000Y-27110000D01*
X3800000Y-29251810D02*
X3800000Y-18850000D01*
X33500000Y-25920000D02*
X48670000Y-25920000D01*
X15170000Y-19780000D02*
X15170000Y-21070000D01*
%TO.N,Net-(D3-A)*%
X54270057Y-27770000D02*
X56120057Y-25920000D01*
X22671810Y-28360000D02*
X23310000Y-27721810D01*
X9990000Y-47771003D02*
X13180000Y-44581003D01*
X23310000Y-27721810D02*
X23310000Y-23420000D01*
X35410000Y-27770000D02*
X54270057Y-27770000D01*
X13180000Y-44581003D02*
X13180000Y-28380000D01*
X56120057Y-25920000D02*
X67670000Y-25920000D01*
%TO.N,Net-(D4-A)*%
X17792120Y-46960000D02*
X27180000Y-37572120D01*
X35060000Y-11360000D02*
X28690000Y-11360000D01*
X27180000Y-33797100D02*
X21810000Y-28427100D01*
X58276470Y-9560000D02*
X40690000Y-9560000D01*
X21810000Y-28427100D02*
X21810000Y-11035101D01*
X11901003Y-46960000D02*
X17792120Y-46960000D01*
X27180000Y-37572120D02*
X27180000Y-33797100D01*
X58933235Y-8903235D02*
X58276470Y-9560000D01*
X11090000Y-47771003D02*
X11901003Y-46960000D01*
X21810000Y-11035101D02*
X24023521Y-8821580D01*
%TO.N,Row 2*%
X9371810Y-18263267D02*
X12091810Y-15543267D01*
X24871810Y-38463267D02*
X10771810Y-24363267D01*
X10771810Y-24363267D02*
X10771810Y-19363267D01*
X12091810Y-15543267D02*
X14271810Y-15543267D01*
X10771810Y-19363267D02*
X14271810Y-15863267D01*
X14271810Y-13263267D02*
X14271810Y-15543267D01*
X14271810Y-15863267D02*
X14271810Y-15543267D01*
%TO.N,SDA*%
X4456733Y-13003267D02*
X15000000Y-2460000D01*
X16148710Y-1379267D02*
X48686367Y-1379267D01*
X57835600Y-2460000D02*
X59808500Y-2460000D01*
X2551810Y-13003267D02*
X4456733Y-13003267D01*
X15067977Y-2460000D02*
X16148710Y-1379267D01*
X57654600Y-2279000D02*
X57835600Y-2460000D01*
X49586100Y-2279000D02*
X57654600Y-2279000D01*
X59808500Y-2460000D02*
X60476750Y-3128250D01*
X15000000Y-2460000D02*
X15067977Y-2460000D01*
X48686367Y-1379267D02*
X49586100Y-2279000D01*
%TO.N,Net-(D5-A)*%
X30260000Y-48570006D02*
X30120006Y-48570006D01*
X30120006Y-48570006D02*
X29660000Y-48110000D01*
X29660000Y-48110000D02*
X29660000Y-45120000D01*
%TO.N,Net-(D6-A)*%
X30260000Y-47770003D02*
X30369997Y-47880000D01*
X30330003Y-47700000D02*
X48600000Y-47700000D01*
X30260000Y-47770003D02*
X30330003Y-47700000D01*
%TO.N,Net-(D7-A)*%
X59190000Y-46970000D02*
X59230000Y-46930000D01*
X30260000Y-46970000D02*
X59190000Y-46970000D01*
%TO.N,Net-(D8-A)*%
X40780000Y-49560000D02*
X41880000Y-48460000D01*
X30330000Y-49560000D02*
X40780000Y-49560000D01*
X58900000Y-48460000D02*
X59220000Y-48140000D01*
X41880000Y-48460000D02*
X58900000Y-48460000D01*
%TO.N,Net-(D10-DIN)*%
X26583267Y-17486733D02*
X29722500Y-17486733D01*
X26460000Y-17610000D02*
X26583267Y-17486733D01*
%TO.N,Net-(D10-DOUT)*%
X37392500Y-17486733D02*
X48632500Y-17486733D01*
X35892500Y-15986733D02*
X37392500Y-17486733D01*
X35092500Y-15986733D02*
X35892500Y-15986733D01*
%TO.N,Net-(D11-DOUT)*%
X54002500Y-15986733D02*
X54802500Y-15986733D01*
X54802500Y-15986733D02*
X56302500Y-17486733D01*
X56302500Y-17486733D02*
X67632500Y-17486733D01*
%TO.N,Net-(D12-DOUT)*%
X83733267Y-36566733D02*
X86722500Y-36566733D01*
X77810000Y-19994233D02*
X73802500Y-15986733D01*
X73802500Y-15986733D02*
X73002500Y-15986733D01*
X77810000Y-21280000D02*
X77810000Y-19994233D01*
X83670000Y-36630000D02*
X83733267Y-36566733D01*
%TO.N,Net-(D13-DOUT)*%
X92092500Y-35066733D02*
X92092500Y-33442500D01*
X67632500Y-40787316D02*
X67632500Y-36566733D01*
X92090000Y-33440000D02*
X77810000Y-33440000D01*
X69236184Y-42391000D02*
X67632500Y-40787316D01*
X77810000Y-33440000D02*
X77810000Y-35764816D01*
X77810000Y-35764816D02*
X71183816Y-42391000D01*
X92092500Y-33442500D02*
X92090000Y-33440000D01*
X71183816Y-42391000D02*
X69236184Y-42391000D01*
%TO.N,Net-(D14-DOUT)*%
X48632500Y-43042500D02*
X48660000Y-43070000D01*
X48632500Y-36566733D02*
X48632500Y-43042500D01*
X73002500Y-35066733D02*
X73002500Y-32787500D01*
X73002500Y-32787500D02*
X73020000Y-32770000D01*
%TO.N,Net-(D15-DOUT)*%
X36590314Y-43981000D02*
X32816184Y-43981000D01*
X54802500Y-35066733D02*
X57491000Y-37755233D01*
X57491000Y-37755233D02*
X57491000Y-42090314D01*
X55041628Y-44539686D02*
X50071000Y-44539686D01*
X29622500Y-40787316D02*
X29622500Y-36566733D01*
X32816184Y-43981000D02*
X29622500Y-40787316D01*
X54002500Y-35066733D02*
X54802500Y-35066733D01*
X49202314Y-43671000D02*
X36900314Y-43671000D01*
X50071000Y-44539686D02*
X49202314Y-43671000D01*
X57491000Y-42090314D02*
X55041628Y-44539686D01*
X36900314Y-43671000D02*
X36590314Y-43981000D01*
%TO.N,Net-(D16-DOUT)*%
X40413267Y-35066733D02*
X40430000Y-35050000D01*
X40430000Y-16190000D02*
X40420000Y-16180000D01*
X40420000Y-10410000D02*
X36070000Y-6060000D01*
X34992500Y-35066733D02*
X40413267Y-35066733D01*
X40420000Y-16180000D02*
X40420000Y-10410000D01*
%TO.N,SCL*%
X16314810Y-1780267D02*
X48520267Y-1780267D01*
X49420000Y-2680000D02*
X57488500Y-2680000D01*
X2551810Y-15543267D02*
X16314810Y-1780267D01*
X57488500Y-2680000D02*
X60476750Y-5668250D01*
X48520267Y-1780267D02*
X49420000Y-2680000D01*
%TO.N,Column 1*%
X4873267Y-2843267D02*
X2551810Y-2843267D01*
X4873267Y-2843267D02*
X9270000Y-7240000D01*
%TO.N,Column 2*%
X55010000Y-28140000D02*
X54580000Y-28570000D01*
X33820000Y-28420000D02*
X34320000Y-28420000D01*
X53830000Y-28570000D02*
X54580000Y-28570000D01*
X34470000Y-28570000D02*
X53830000Y-28570000D01*
X8275000Y-8205000D02*
X5453267Y-5383267D01*
X59510000Y-29230000D02*
X53830000Y-29230000D01*
X53830000Y-29230000D02*
X53830000Y-28570000D01*
X34320000Y-28420000D02*
X34470000Y-28570000D01*
X5453267Y-5383267D02*
X2551810Y-5383267D01*
X59540000Y-36010000D02*
X59540000Y-31180000D01*
X55010000Y-27880000D02*
X55010000Y-28140000D01*
%TO.N,Column 3*%
X77020000Y-23380000D02*
X74020000Y-23380000D01*
X49522727Y-800000D02*
X76690000Y-800000D01*
X78620000Y-23380000D02*
X77020000Y-23380000D01*
X77020000Y-23380000D02*
X77020000Y-29300000D01*
X78620000Y-1430000D02*
X78620000Y-23380000D01*
%TO.N,Column 4*%
X52061000Y-13551000D02*
X48880000Y-10370000D01*
X60829000Y-13551000D02*
X52061000Y-13551000D01*
X62790000Y-11590000D02*
X60829000Y-13551000D01*
%TO.N,Rotary B*%
X22170000Y-9220000D02*
X23104265Y-8285735D01*
X66547250Y-7057250D02*
X78010000Y-18520000D01*
X60017250Y-7057250D02*
X66547250Y-7057250D01*
X57840000Y-4880000D02*
X60017250Y-7057250D01*
X25870000Y-4880000D02*
X57840000Y-4880000D01*
%TO.N,Rotary A*%
X78019000Y-1181057D02*
X78371057Y-829000D01*
X78019000Y-1830000D02*
X78019000Y-1181057D01*
X49704200Y-1830000D02*
X78019000Y-1830000D01*
X48852467Y-978267D02*
X49704200Y-1830000D01*
X82050000Y-3190000D02*
X82050000Y-18340000D01*
X79221000Y-1181057D02*
X79221000Y-1390000D01*
X15040000Y-1390000D02*
X15570877Y-1390000D01*
X79221000Y-1390000D02*
X80250000Y-1390000D01*
X15982610Y-978267D02*
X48852467Y-978267D01*
X80250000Y-1390000D02*
X82050000Y-3190000D01*
X15570877Y-1390000D02*
X15982610Y-978267D01*
X10650000Y-5780000D02*
X15040000Y-1390000D01*
X78868943Y-829000D02*
X79221000Y-1181057D01*
X78371057Y-829000D02*
X78868943Y-829000D01*
%TO.N,Net-(D17-DOUT)*%
X38110000Y-10240000D02*
X39540000Y-11670000D01*
X30620000Y-10240000D02*
X38110000Y-10240000D01*
X46030000Y-11670000D02*
X48060000Y-11670000D01*
%TO.N,Net-(D20-DIN)*%
X43248477Y-10350000D02*
X43230000Y-10368477D01*
X43230000Y-10368477D02*
X43230000Y-16250000D01*
%TD*%
M02*
